<svg width="621" height="621" viewBox="0 0 621 621" fill="none" xmlns="http://www.w3.org/2000/svg">
<rect width="621" height="621" rx="120" fill="#242938"/>
<path d="M69 310.5C69.2012 177.212 177.212 69.2012 310.5 69C443.788 69.2012 551.799 177.212 552 310.5C551.799 443.788 443.788 551.799 310.5 552C177.212 551.799 69.2012 443.788 69 310.5ZM310.5 531.955C360.251 532.003 408.554 515.214 447.551 484.32L441.453 471.118C437.945 472.295 434.125 472.134 430.727 470.667C427.33 469.201 424.594 466.53 423.044 463.17C421.495 459.809 421.241 455.994 422.332 452.458C423.423 448.922 425.782 445.913 428.956 444.009L414.425 412.554C408.342 414.523 401.736 414.09 395.962 411.343C390.188 408.596 385.683 403.744 383.373 397.782L333.583 410.521V410.763C333.553 412.87 333.079 414.948 332.193 416.86C331.307 418.773 330.029 420.478 328.442 421.864C326.855 423.251 324.994 424.288 322.979 424.909C320.965 425.53 318.843 425.72 316.75 425.468C314.658 425.215 312.642 424.525 310.833 423.443C309.025 422.361 307.464 420.911 306.252 419.186C305.04 417.462 304.204 415.502 303.799 413.434C303.394 411.365 303.428 409.235 303.899 407.181L234.025 377.114C231.495 381.53 227.675 385.066 223.078 387.25C218.481 389.433 213.326 390.159 208.305 389.33L193.252 441.453C195.962 442.87 198.175 445.079 199.597 447.786C201.019 450.493 201.582 453.569 201.21 456.604C200.838 459.639 199.55 462.489 197.517 464.773C195.484 467.057 192.802 468.666 189.831 469.387L190.877 496.757C226.528 519.765 268.069 532.001 310.5 531.955ZM184.719 492.631L183.833 469.649C179.996 469.032 176.546 466.952 174.209 463.847C171.871 460.742 170.827 456.852 171.296 452.993C171.764 449.135 173.709 445.608 176.722 443.152C179.735 440.697 183.582 439.504 187.456 439.823L202.529 387.7C198.005 385.767 194.147 382.55 191.432 378.448C188.717 374.345 187.264 369.536 187.254 364.616L93.1903 353.225C104.441 409.816 137.265 459.81 184.719 492.631ZM452.381 480.395C475.155 461.339 493.902 437.934 507.524 411.548L430.526 396.434C428.682 402.05 424.92 406.838 419.9 409.958L434.631 441.916C437.832 441.467 441.093 442.061 443.93 443.611C446.767 445.161 449.029 447.584 450.38 450.521C451.731 453.458 452.099 456.752 451.43 459.915C450.761 463.078 449.09 465.941 446.666 468.079L452.381 480.395ZM510.301 405.973C524.619 376.186 532.022 343.549 531.955 310.5C532.005 259.373 514.275 209.821 481.804 170.329L451.375 180.714C451.896 182.923 451.911 185.221 451.421 187.437C450.93 189.653 449.946 191.73 448.542 193.513C447.138 195.297 445.35 196.74 443.311 197.737C441.272 198.733 439.034 199.257 436.764 199.269C433.864 199.262 431.026 198.419 428.592 196.842C426.158 195.264 424.23 193.019 423.039 190.374L359.786 211.887C362.612 222.05 362.159 232.846 358.491 242.736C354.823 252.626 348.128 261.107 339.359 266.97L396.856 365.602C400.811 363.908 405.135 363.26 409.413 363.721C413.691 364.183 417.777 365.738 421.28 368.237C424.782 370.737 427.581 374.096 429.409 377.991C431.236 381.886 432.03 386.186 431.713 390.477L510.301 405.973ZM332.275 404.605L381.883 391.926C381.295 387.525 381.891 383.048 383.611 378.955C385.33 374.862 388.11 371.301 391.664 368.641L334.187 270.029C326.497 273.943 317.923 275.797 309.302 275.409C300.682 275.021 292.309 272.404 285.002 267.815L229.255 346.141C232.7 349.288 235.194 353.338 236.453 357.831C237.713 362.324 237.687 367.08 236.38 371.559L306.475 401.686C308.039 399.575 310.131 397.911 312.54 396.86C314.949 395.81 317.591 395.411 320.203 395.702C322.815 395.994 325.305 396.965 327.423 398.521C329.542 400.076 331.215 402.16 332.275 404.564V404.605ZM187.979 358.639C188.898 354.906 190.664 351.434 193.139 348.492C195.614 345.55 198.733 343.216 202.254 341.672C205.775 340.127 209.604 339.413 213.445 339.584C217.286 339.756 221.036 340.808 224.405 342.66L280.151 264.374C274.3 259.689 269.579 253.746 266.339 246.987C263.099 240.228 261.423 232.826 261.435 225.331C261.435 213.196 265.843 201.463 273.852 192.326L199.329 119.051C160.412 141.659 129.302 175.584 110.14 216.309C90.9781 257.034 84.6728 302.63 92.0633 347.027L187.959 358.659L187.979 358.639ZM357.834 206.253L421.711 184.457V184.256C421.709 181.099 422.702 178.022 424.547 175.46C426.393 172.899 428.998 170.984 431.993 169.986C434.989 168.989 438.222 168.959 441.235 169.902C444.247 170.845 446.887 172.713 448.779 175.24L477.618 165.399C444.611 127.246 399.543 101.535 349.903 92.5401C300.263 83.5449 249.039 91.8063 204.743 115.952L277.998 188.019C283.966 182.655 291.135 178.803 298.902 176.786C306.669 174.769 314.806 174.647 322.63 176.43C330.454 178.213 337.735 181.849 343.861 187.031C349.987 192.214 354.779 198.792 357.834 206.212L357.794 206.273L357.834 206.253Z" fill="white"/>
</svg>
