<svg width="621" height="621" viewBox="0 0 621 621" fill="none" xmlns="http://www.w3.org/2000/svg">
    <rect width="621" height="621" rx="120" fill="#242938"/>
    <path d="M294.841 78.8525H326.233C415.213 88.0175 479.979 132.324 520.531 211.771C532.619 238.311 539.85 266.001 542.225 294.841V326.233C533.06 415.213 488.754 479.979 409.306 520.531C382.766 532.619 355.075 539.85 326.233 542.225H294.845C205.868 533.06 141.096 488.754 100.531 409.306C88.4488 382.766 81.2225 355.075 78.8525 326.233V294.845C88.0175 205.868 132.324 141.096 211.771 100.531C238.311 88.4488 266.001 81.2225 294.841 78.8525Z" fill="#382A24"/>
    <path d="M488.686 308.686C487.691 283.986 481.231 260.91 469.306 239.458C471.687 232.333 472.477 224.773 471.62 217.31C469.715 212.578 466.183 209.971 461 209.458C453.011 208.998 445.008 208.847 437.008 209.004C438.663 208.254 440.508 207.79 442.543 207.613C432.08 191.79 418.962 177.894 403.768 166.539C384.328 150.511 361.868 142.513 336.387 142.543C316.227 142.95 297.458 148.331 280.078 158.686C243.294 179.724 212.84 207.714 188.686 242.694C181.186 243.556 173.641 244.014 166.081 244.07C126.841 237.905 115.456 252.995 131.922 289.306C138.58 302.611 144.736 316.161 150.38 329.926C149.542 340.986 148.927 352.061 148.535 363.151C136.589 382.427 125.349 402.131 114.837 422.225C114.222 423.455 113.607 423.455 112.992 422.225C82.8725 365.785 76.2562 306.708 93.1437 244.993C118.531 169.16 169.156 118.535 244.989 93.1477C327.329 71.4827 400.563 88.4077 464.69 143.923C523.415 201.315 546.34 270.699 533.465 352.074C522.92 404.731 497.535 448.579 457.31 483.616C455.285 485.391 453.131 486.623 450.849 487.31C445.093 470.139 446.161 453.384 454.074 437.008C465.763 417.908 475.065 397.447 481.771 376.081C488.364 353.889 490.663 331.434 488.686 308.686Z" fill="#E1D7CB"/>
    <path d="M403.767 166.539C418.962 177.894 432.08 191.789 442.542 207.612C440.632 207.757 438.76 208.227 437.007 209C421.202 210.072 405.645 213.495 390.848 219.155C376.391 219.855 361.928 220.314 347.461 220.531C343.786 222.026 340.095 222.182 336.387 221C325.972 220.557 317.353 216.402 310.531 208.535C300.291 202.28 289.525 201.049 278.232 204.841C270.245 210.316 267.32 217.856 269.457 227.461C274.357 236.174 275.745 245.406 273.62 255.159C272.737 256.638 271.962 258.18 271.302 259.771C245.639 283.258 222.725 309.581 203 338.236C197.137 348.423 192.491 359.264 189.158 370.535C187.313 386.559 193.932 397.475 209.007 403.317C217.294 406.612 225.983 408.785 234.845 409.779C227.465 415.389 219.144 417.234 209.93 415.314C198.28 413.277 186.951 409.706 176.24 404.694C165.194 424.619 154.879 444.94 145.313 465.616C139.155 458.677 133.154 451.6 127.314 444.391C127.012 443.823 126.854 443.189 126.854 442.546C126.854 441.903 127.012 441.269 127.314 440.701C135.181 422.203 143.801 404.035 153.151 386.24C157.961 394.752 164.886 400.445 173.926 403.317C166.686 396.372 162.222 387.91 160.535 377.93C158.845 362.086 160.42 346.064 165.162 330.852C183.68 271.452 217.062 222.365 265.314 183.62C286.129 168.755 309.205 159.214 334.542 154.996C358.553 153.357 381.638 157.194 403.771 166.542L403.767 166.539Z" fill="#FCFCFC"/>
    <path d="M336.388 221C323.45 225.602 310.808 230.999 298.535 237.159C290.108 243.433 281.946 250.055 274.07 257.007C273.865 256.751 273.718 256.452 273.64 256.133C273.562 255.813 273.556 255.481 273.62 255.159C275.745 245.409 274.358 236.176 269.458 227.461C267.32 217.85 270.245 210.324 278.233 204.841C289.525 201.049 300.291 202.28 310.531 208.535C317.354 216.402 325.973 220.557 336.388 221Z" fill="#382A24"/>
    <path d="M437.007 209C445.002 208.845 453 208.998 461 209.458C466.186 209.971 469.715 212.578 471.62 217.31C472.477 224.773 471.687 232.333 469.306 239.458C463.651 255.245 455.022 269.236 443.469 281.469C435.384 286.934 426.765 287.856 417.612 284.236C397.365 278.201 381.212 266.659 369.155 249.609C365.315 239.926 367.925 232.381 377.007 227.008C381.62 224.383 386.232 221.776 390.849 219.155C405.645 213.495 421.202 210.072 437.007 209Z" fill="#372923"/>
    <path d="M390.849 219.155C386.236 221.776 381.62 224.382 377.008 227.007C367.925 232.381 365.315 239.926 369.155 249.609C381.213 266.659 397.365 278.201 417.613 284.236C426.763 287.856 435.38 286.934 443.465 281.469C455.023 269.236 463.651 255.249 469.302 239.457C481.227 260.907 487.689 283.982 488.686 308.682C484.221 323.145 478.189 337.076 470.698 350.229C467.199 355.27 463.342 360.053 459.155 364.539C454.714 367.588 450.404 370.823 446.236 374.236L445.31 372.849C449.502 357.369 450.598 341.214 448.535 325.31C447.738 321.064 446.175 317 443.923 313.314C442.498 333.825 437.173 353.876 428.233 372.391C416.343 394.706 398.036 402.549 373.314 395.919C336.344 385.369 303.879 367.062 275.919 341C277.699 352.101 280.801 362.949 285.159 373.314C290.859 390.511 292.396 408.046 289.771 425.919C288.912 429.728 287.676 433.443 286.081 437.007C273.604 457.328 262.798 478.628 253.768 500.697C250.756 508.829 248.291 517.152 246.388 525.612C246.159 526.07 245.833 526.473 245.433 526.792C245.032 527.111 244.567 527.34 244.07 527.461C205.606 515.386 172.674 494.78 145.31 465.612C154.878 444.937 165.194 424.616 176.236 404.69C186.948 409.702 198.277 413.273 209.926 415.31C219.14 417.23 227.461 415.385 234.841 409.775C225.98 408.781 217.29 406.608 209.004 403.314C193.929 397.471 187.31 386.555 189.155 370.531C192.487 359.26 197.133 348.419 202.996 338.232C222.723 309.58 245.639 283.259 271.303 259.775C271.965 258.177 272.736 256.64 273.616 255.162C273.553 255.484 273.56 255.816 273.639 256.135C273.717 256.454 273.864 256.751 274.07 257.007C281.946 250.055 290.108 243.433 298.535 237.159C310.808 230.999 323.45 225.602 336.388 221C340.093 222.182 343.784 222.026 347.461 220.531C361.948 220.31 376.404 219.841 390.849 219.155Z" fill="#887363"/>
    <path d="M453.616 382.542C448.509 404.14 441.241 425.168 431.923 445.31C429.973 448.96 427.048 451.422 423.148 452.697L422.225 451.302C426.214 440.211 428.092 428.472 427.764 416.69C424.44 430.529 419.323 443.874 412.543 456.387C405.453 459.297 398.221 459.756 390.849 457.764C388.56 454.885 386.835 451.6 385.764 448.081C383.389 436.525 382.003 424.788 381.62 412.996C410.885 414.974 434.885 404.824 453.62 382.546L453.616 382.542Z" fill="#FBFBFB"/>
</svg>