<svg width="621" height="621" viewBox="0 0 621 621" fill="none" xmlns="http://www.w3.org/2000/svg">
<rect width="621" height="621" rx="120" fill="#242938"/>
<path d="M214.458 249.407L308.189 195.317C309.342 194.652 310.65 194.301 311.981 194.301C313.313 194.301 314.62 194.652 315.773 195.317L409.505 249.407C410.658 250.072 411.615 251.029 412.281 252.181C412.946 253.333 413.297 254.64 413.297 255.971V364.151C413.297 366.857 411.85 369.359 409.505 370.715L315.773 424.804C314.62 425.47 313.313 425.82 311.981 425.82C310.65 425.82 309.342 425.47 308.189 424.804L214.458 370.715C213.305 370.049 212.347 369.093 211.682 367.94C211.016 366.788 210.666 365.481 210.666 364.151V255.969C210.667 253.261 212.113 250.763 214.458 249.407Z" fill="#8080F2"/>
<path d="M554.979 301.195L442.868 106.248C438.796 99.2003 431.274 94 423.13 94H198.905C190.761 94 183.235 99.2003 179.163 106.248L67.0539 300.765C62.982 307.815 62.982 316.713 67.0539 323.763L179.163 517.113C183.235 524.162 190.761 527.765 198.905 527.765H423.128C431.272 527.765 438.796 524.27 442.866 517.219L554.977 323.555C559.053 316.509 559.053 308.244 554.977 301.195M462.143 394.939C462.143 397.804 460.418 400.456 457.932 401.891L315.127 484.241C313.898 484.945 312.505 485.316 311.088 485.316C309.671 485.316 308.278 484.945 307.049 484.241L164.134 401.891C161.65 400.456 159.911 397.806 159.911 394.938V230.234C159.911 227.365 161.625 224.717 164.111 223.282L306.908 140.93C308.137 140.224 309.529 139.853 310.946 139.853C312.363 139.853 313.756 140.224 314.984 140.93L457.907 223.282C460.395 224.717 462.143 227.365 462.143 230.234V394.939Z" fill="#4B32C3"/>
</svg>
