<svg width="621" height="621" viewBox="0 0 621 621" fill="none" xmlns="http://www.w3.org/2000/svg">
<rect width="621" height="621" rx="120" fill="#242938"/>
<path d="M550.472 418.568L464.813 299.335L326.159 106.317C319.112 96.5609 302.851 96.5609 295.844 106.317L157.231 299.294L71.5112 418.568C69.7998 420.963 68.6731 423.728 68.2222 426.64C67.7713 429.552 68.0087 432.53 68.9153 435.333C69.8218 438.136 71.3722 440.686 73.4412 442.777C75.5102 444.868 78.0399 446.442 80.8263 447.371L305.159 521.073H305.2C308.963 522.309 313.02 522.309 316.783 521.073H316.824L541.136 447.371C546.807 445.501 551.262 441.07 553.084 435.338C553.994 432.532 554.23 429.55 553.773 426.636C553.315 423.721 552.198 420.957 550.472 418.568ZM311.012 149.328L400.923 274.496L316.844 246.853C316.196 246.649 315.507 246.69 314.859 246.528C314.217 246.388 313.568 246.279 312.915 246.202C312.267 246.121 311.66 245.877 311.012 245.877C310.364 245.877 309.756 246.121 309.108 246.202C308.455 246.279 307.807 246.388 307.164 246.528C306.516 246.65 305.828 246.649 305.22 246.853L221.688 274.354L221.161 274.517L311.073 149.348H311.032L311.012 149.328ZM183.981 326.166L281.872 293.989L292.321 290.574V477.372L116.791 419.707L183.961 326.206L183.981 326.166ZM329.723 477.332V290.595L438.062 326.206L505.212 419.666L329.723 477.332Z" fill="#D7215F"/>
</svg>
