<svg width="621" height="621" viewBox="0 0 621 621" fill="none" xmlns="http://www.w3.org/2000/svg">
<rect width="621" height="621" rx="120" fill="#242938"/>
<path d="M310.996 359.399C337.908 359.399 359.725 337.582 359.725 310.67C359.725 283.758 337.908 261.941 310.996 261.941C284.083 261.941 262.267 283.758 262.267 310.67C262.267 337.582 284.083 359.399 310.996 359.399Z" fill="#61DAFB"/>
<path d="M496.081 230.31C486.677 226.89 476.846 223.471 466.587 220.479C469.152 210.22 471.289 199.961 472.999 190.13C481.975 133.707 472.144 93.9539 444.787 78.5657C436.666 73.8638 427.689 71.7266 417.431 71.7266C387.509 71.7266 349.466 93.9539 310.996 131.142C272.526 93.9539 234.483 71.7266 204.561 71.7266C194.303 71.7266 185.326 73.8638 177.205 78.5657C149.848 94.3813 140.017 134.134 148.993 190.13C150.703 199.961 152.84 210.22 155.405 220.479C145.146 223.471 135.315 226.463 125.911 230.31C72.4798 250.827 43.4133 279.039 43.4133 310.67C43.4133 342.301 72.9073 370.513 125.911 391.031C135.315 394.45 145.146 397.87 155.405 400.862C152.84 411.121 150.703 421.379 148.993 431.211C140.017 487.634 149.848 527.387 177.205 542.775C185.326 547.477 194.303 549.614 204.561 549.614C234.91 549.614 272.953 527.387 310.996 490.199C349.466 527.387 387.509 549.614 417.431 549.614C427.689 549.614 436.666 547.477 444.787 542.775C472.144 526.959 481.975 487.206 472.999 431.211C471.289 421.379 469.152 411.121 466.587 400.862C476.846 397.87 486.677 394.878 496.081 391.031C549.512 370.513 578.579 342.301 578.579 310.67C578.579 279.039 549.512 250.827 496.081 230.31ZM432.819 99.9382C450.344 110.197 456.329 141.828 449.062 186.71C447.78 195.687 445.642 205.09 443.078 214.922C420.85 209.792 397.341 206.373 372.549 204.236C358.015 183.718 343.055 165.338 328.094 148.667C359.725 117.464 391.784 96.0911 417.858 96.0911C423.415 96.0911 428.544 97.3735 432.819 99.9382ZM384.945 353.415C377.251 367.093 368.274 380.772 358.87 394.45C343.055 395.732 327.239 396.16 310.996 396.16C294.326 396.16 278.51 395.732 263.122 394.45C253.718 380.772 245.169 367.093 237.475 353.415C229.353 339.309 221.659 324.776 214.82 310.67C221.659 296.564 229.353 282.031 237.475 267.925C245.169 254.247 254.145 240.569 263.549 226.89C279.365 225.608 295.18 225.181 311.424 225.181C328.094 225.181 343.91 225.608 359.298 226.89C368.702 240.569 377.251 254.247 384.945 267.925C393.066 282.031 400.76 296.564 407.599 310.67C400.333 324.776 393.066 338.882 384.945 353.415ZM420.423 339.309C426.835 354.27 431.964 368.803 436.666 383.336C422.133 386.756 406.745 389.321 390.501 391.458C395.631 383.337 401.188 374.788 405.89 365.811C411.019 356.835 415.721 347.858 420.423 339.309ZM310.996 455.148C300.737 444.034 290.906 432.066 281.502 419.67C291.333 420.097 301.165 420.525 310.996 420.525C320.827 420.525 330.659 420.097 340.49 419.67C331.086 432.066 321.255 444.034 310.996 455.148ZM231.491 391.031C215.248 388.893 199.859 386.329 185.326 382.909C190.028 368.803 195.158 353.843 201.569 338.882C206.271 347.431 210.973 356.407 216.102 364.956C221.232 374.36 226.361 382.482 231.491 391.031ZM201.569 282.031C195.158 267.07 190.028 252.537 185.326 238.004C199.859 234.584 215.248 232.02 231.491 229.882C226.361 238.004 220.804 246.553 216.102 255.529C210.973 264.506 206.271 273.482 201.569 282.031ZM310.996 166.193C321.255 177.306 331.086 189.275 340.49 201.671C330.659 201.243 320.827 200.816 310.996 200.816C301.165 200.816 291.333 201.243 281.502 201.671C290.906 189.275 300.737 177.306 310.996 166.193ZM405.89 255.957L390.501 230.31C406.745 232.447 422.133 235.012 436.666 238.431C431.964 252.537 426.835 267.498 420.423 282.459C415.721 273.482 411.019 264.506 405.89 255.957ZM172.93 186.71C165.664 141.828 171.648 110.197 189.173 99.9382C193.448 97.3735 198.577 96.0911 204.134 96.0911C229.781 96.0911 261.839 117.036 293.898 148.667C278.937 164.91 263.977 183.718 249.443 204.236C224.651 206.373 201.142 210.22 178.914 214.922C176.35 205.09 174.64 195.687 172.93 186.71ZM67.3504 310.67C67.3504 290.58 91.715 269.208 134.46 253.392C143.009 249.973 152.413 246.98 161.817 244.416C168.656 265.788 177.205 288.443 187.463 311.098C177.205 333.752 168.228 355.98 161.817 377.352C102.829 360.254 67.3504 334.607 67.3504 310.67ZM189.173 521.402C171.648 511.144 165.664 479.512 172.93 434.63C174.213 425.654 176.35 416.25 178.914 406.419C201.142 411.548 224.651 414.968 249.443 417.105C263.977 437.622 278.937 456.003 293.898 472.673C262.267 503.877 230.208 525.249 204.134 525.249C198.577 525.249 193.448 523.967 189.173 521.402ZM449.062 434.63C456.329 479.512 450.344 511.144 432.819 521.402C428.544 523.967 423.415 525.249 417.858 525.249C392.211 525.249 360.153 504.304 328.094 472.673C343.055 456.43 358.015 437.622 372.549 417.105C397.341 414.968 420.85 411.121 443.078 406.419C445.642 416.25 447.352 425.654 449.062 434.63ZM487.532 367.948C478.983 371.368 469.579 374.36 460.176 376.925C453.336 355.552 444.787 332.898 434.529 310.243C444.787 287.588 453.764 265.361 460.176 243.988C519.163 261.086 554.642 286.733 554.642 310.67C554.642 330.76 529.85 352.133 487.532 367.948Z" fill="#61DAFB"/>
</svg>
