<svg width="621" height="621" viewBox="0 0 621 621" fill="none" xmlns="http://www.w3.org/2000/svg">
<rect width="621" height="621" rx="120" fill="#242938"/>
<path d="M100.814 345.74C97.8927 345.275 90.4186 343.409 84.2262 341.719L72.9496 338.569L78.7341 327.961L84.5148 317.352L79.8425 311.579C73.2421 303.418 64.7173 285.527 64.6596 279.758C64.598 266.288 82.1171 246.765 103.612 236.275C118.391 229.047 130.129 228.874 144.846 235.753L155.942 240.938L159.156 236.333C160.903 233.825 162.365 230.506 162.365 229.047C162.365 227.587 163.828 226.308 165.579 226.308C167.33 226.308 168.789 226.769 168.789 227.295C168.789 228.582 155.884 261.103 155.068 261.917C154.714 262.263 151.208 260.638 147.236 258.306C136.025 251.715 121.951 247.345 111.028 247.053C85.6271 246.411 76.8021 271.189 94.7368 292.867L101.041 300.506L118.271 286.571C137.603 271.012 139.824 270.659 154.891 281.041C171.825 292.694 172.118 310.412 155.761 328.944C141.279 345.44 126.392 349.992 100.806 345.729L100.814 345.74ZM144.15 327.965C152.555 321.381 151.974 309.194 142.86 299.519C131.415 287.397 127.858 287.92 107.707 304.704C87.6707 321.374 87.5552 320.736 111.502 328.372C127.327 333.499 137.257 333.326 144.15 327.965ZM306.859 392.192C301.133 390.095 285.715 383.742 272.518 378.03C236.891 362.525 231.868 362.233 221.238 375.115C218.787 378.088 216.1 379.955 215.342 379.198C213.06 376.92 219.837 366.024 228.016 358.857C234.67 353.026 236.887 352.212 244.253 353.026C248.922 353.549 264.459 358.972 278.764 365.033C311.062 378.729 320.522 381.645 332.849 381.645C347.855 381.645 355.568 371.155 350.834 357.224C349.668 353.729 350.014 352.558 352.354 352.558C356.73 352.558 358.955 368.881 355.803 378.265C354.456 382.282 350.542 387.994 347.097 390.851C341.955 395.164 338.688 396.098 329.047 396.036C322.566 395.983 312.582 394.293 306.856 392.195L306.859 392.192ZM223.636 342.364C210.377 336.18 198.404 324.408 191.511 310.654C180.477 288.622 183.86 274.519 204.77 255.46C222.347 239.429 236.718 233.191 256.053 233.191C270.005 233.191 272.987 233.951 282.032 239.486C303.469 252.718 308.784 277.956 295.879 305.461C280.754 337.755 248.806 354.017 223.636 342.356V342.364ZM268.023 327.031C277.948 322.134 284.784 299.519 281.978 280.749C278.476 257.615 247.113 241.818 224.102 251.612C200.448 261.694 200.098 288.561 223.344 312.751C239.577 329.712 253.536 334.144 268.023 327.031ZM313.052 346.616C313.052 345.621 316.727 343.877 321.284 342.767L329.52 340.724L331.271 311.122C333.196 278.363 331.791 246.131 328.231 241.821C326.946 240.3 323.035 238.434 319.475 237.623C304.993 234.416 314.626 232.2 342.721 232.2C370.816 232.2 379.745 234.243 366.371 237.623C354.864 240.481 354.806 240.654 354.806 287.397C354.806 313.331 355.741 332.862 357.084 335.366C358.955 338.861 361.757 339.618 372.502 339.618C394.693 339.618 402.345 334.375 408.364 314.963C410.173 309.14 414.845 310.189 413.209 316.077C412.447 318.812 411.227 327.143 410.465 334.724L409.064 348.421H361.056C334.654 348.421 313.052 347.607 313.052 346.616Z" fill="white"/>
<path d="M422.98 344.865C422.98 343.123 424.671 341.373 427.463 340.034C431.19 338.287 433.629 334.618 442.475 317.321C456.498 289.953 478.612 242.951 480.706 235.901C482.331 230.543 482.684 230.256 488.735 229.557C492.224 229.15 495.135 228.916 495.192 229.031C495.25 229.146 500.081 239.743 505.96 252.619C511.781 265.487 523.476 289.95 531.969 306.955C546.169 335.547 547.741 338.111 552.511 340.437C555.421 341.837 557.688 343.994 557.688 345.272C557.688 347.31 555.188 347.544 533.66 347.544C512.072 347.544 509.626 347.314 509.626 345.219C509.626 343.822 511.489 342.306 514.453 341.312C517.191 340.44 519.285 338.809 519.285 337.589C519.285 336.422 516.432 328.735 512.939 320.526L506.6 305.558H458.534L453.94 315.69C445.324 334.676 445.152 339.162 453.181 341.312C457.2 342.421 458.304 343.296 457.836 345.1C457.315 347.199 455.217 347.487 440.09 347.487C423.855 347.606 422.98 347.487 422.98 344.865ZM501.769 297.752C502.582 296.297 484.486 256.752 482.803 256.341C481.576 255.996 462.84 294.666 462.84 297.575C462.84 299.034 500.898 299.206 501.769 297.752Z" fill="#CA2727"/>
</svg>
