<svg width="621" height="621" viewBox="0 0 621 621" fill="none" xmlns="http://www.w3.org/2000/svg">
<rect width="621" height="621" rx="120" fill="#242938"/>
<path d="M497.713 89.0561C477.803 71.3102 453.726 78.4469 429.93 99.5532C426.267 102.845 422.745 106.292 419.375 109.884C378.694 153.037 340.935 232.94 329.208 293.98C333.773 303.251 337.347 315.076 339.705 324.104C340.883 328.592 341.938 333.11 342.871 337.654C342.871 337.654 342.505 336.283 341.008 331.946L340.045 329.136C339.848 328.616 339.636 328.102 339.409 327.595C336.754 321.42 329.421 308.391 326.184 302.727C323.618 310.24 321.196 317.801 318.92 325.407C328.26 342.458 333.928 371.707 333.928 371.707C333.928 371.707 333.447 369.8 331.1 363.188C329.038 357.339 318.667 339.181 316.207 334.942C312.011 350.459 310.347 360.913 311.841 363.456C314.782 368.386 317.549 376.923 319.98 386.331C325.507 407.556 329.334 433.412 329.334 433.412L329.674 437.724C328.94 455.397 329.305 473.103 330.749 490.737C332.586 512.849 336.019 531.825 340.4 542L343.381 540.372C336.938 520.351 334.323 494.101 335.48 463.851C337.206 417.587 347.859 361.792 367.516 303.646C400.763 215.889 446.874 145.455 489.067 111.812C450.615 146.54 398.55 259.013 382.962 300.64C365.512 347.254 353.162 390.986 345.71 432.902C358.57 393.609 400.127 376.738 400.127 376.738C400.127 376.738 420.518 351.584 444.342 315.669C430.071 318.917 406.627 324.499 398.77 327.79C387.195 332.637 384.073 334.29 384.073 334.29C384.073 334.29 421.589 311.459 453.78 301.114C498.035 231.41 546.262 132.39 497.713 89.0561ZM139.396 99.546C119.869 99.6183 104.054 115.425 104 134.955V455.343C104.058 474.869 119.88 490.665 139.396 490.737H321.087C319.73 473.364 319.396 455.925 320.085 438.512C319.973 437.311 319.871 435.785 319.774 434.653C317.425 419.23 314.38 403.92 310.647 388.772C308.314 379.704 305.347 371.45 303.539 368.386C301.292 364.584 301.643 362.407 301.658 360.048C301.658 357.733 301.954 355.328 302.381 352.601C303.522 345.805 305.024 339.084 306.889 332.438L311.07 331.903C310.745 331.223 310.803 330.644 310.477 330.037L309.685 322.69C311.992 314.96 314.453 307.277 317.064 299.645L320.92 299.276C320.765 298.979 320.721 298.542 320.566 298.263L319.734 292.168C331.899 228.882 369.654 148.57 412.343 103.283C413.616 101.944 414.915 100.812 416.159 99.5387L139.396 99.546Z" fill="white"/>
</svg>
