<svg width="621" height="621" viewBox="0 0 621 621" fill="none" xmlns="http://www.w3.org/2000/svg">
<rect width="621" height="621" rx="120" fill="#242938"/>
<path d="M426.454 123.694C489.193 162.448 531 231.841 531 311C531 432.502 432.501 531 310.998 531C285.274 531.032 259.746 526.538 235.579 517.724L233.07 516.789L237.16 515.473L242.42 513.75L245.015 512.881L247.586 512.014L252.66 510.265L257.641 508.505L262.526 506.734L267.321 504.954L269.686 504.057L274.34 502.255C279.256 500.33 284.015 498.384 288.617 496.415L292.037 494.934L296.231 493.074C298.051 492.253 299.865 491.419 301.672 490.571L304.333 489.313L308.248 487.412L310.17 486.46L312.067 485.501L315.797 483.576C347.099 467.159 368.364 449.321 379.656 429.765C403.581 388.33 382.684 344.051 322.706 298.91L317.825 295.253L314.862 292.977L311.985 290.722L309.19 288.481L306.485 286.26L305.165 285.157L303.862 284.057L301.325 281.867L299.479 280.238L297.681 278.615L295.358 276.47L293.116 274.339L290.957 272.228L289.912 271.18L288.885 270.131L286.894 268.052C263.186 242.848 257.892 221.274 268.655 202.629C274.134 193.142 283.632 183.812 297.131 174.727L298.771 173.637L301.353 171.977C302.521 171.242 303.715 170.506 304.934 169.77L306.784 168.67L309.637 167.027L312.576 165.391L314.841 164.167L317.155 162.947L320.321 161.324C322.787 160.082 325.27 158.873 327.77 157.698L330.355 156.495L333.878 154.9L335.673 154.102L339.33 152.521L341.194 151.73L344.989 150.152L346.914 149.369L350.843 147.805L352.84 147.024L356.903 145.471L361.052 143.924L363.159 143.157L367.446 141.621L371.818 140.094L376.284 138.578L378.549 137.822L383.145 136.317L387.834 134.818L392.609 133.329L397.473 131.848L402.43 130.377L408.748 128.548L415.207 126.733L423.141 124.574L426.454 123.694ZM310.998 91C337.753 91 363.393 95.7781 387.109 104.52L389.642 105.472L388.037 105.96L380.199 108.377L377.635 109.188L372.571 110.817L367.601 112.464L362.723 114.121L357.938 115.791L353.245 117.476L350.932 118.321L345.253 120.452L339.719 122.608L335.391 124.344L333.263 125.217L329.076 126.977C286.289 145.209 258.249 165.656 244.843 188.879C221.437 229.418 242.667 273.119 302.649 318.246L307.53 321.907L310.493 324.183L313.37 326.441L314.78 327.565L317.526 329.8L319.527 331.463L321.486 333.12L324.016 335.317L325.254 336.406L327.657 338.576C328.967 339.779 330.239 340.974 331.472 342.161L333.294 343.935L335.917 346.581L338.409 349.197C362.015 374.576 367.061 396.583 355.844 416.015C348.584 428.59 334.724 440.965 314.298 452.979L312.421 454.072L309.383 455.794L306.254 457.51C304.459 458.478 302.653 459.428 300.837 460.359L298.035 461.775L294.588 463.474L291.05 465.165L287.424 466.853L285.578 467.695L281.814 469.369L277.964 471.043L274.021 472.707L272.013 473.539L267.936 475.192L265.864 476.017L263.767 476.842L259.508 478.485L255.159 480.121L250.721 481.751L246.191 483.373L241.574 484.989L239.23 485.793L234.475 487.399L232.062 488.196L227.174 489.791L222.193 491.376L215.844 493.349L209.351 495.312L204.057 496.869L196.666 498.997C133.306 460.376 91 390.63 91 311C91 189.498 189.495 91 310.998 91Z" fill="#0080FF"/>
</svg>
